<svg viewBox="0 0 90 90" fill="none" xmlns="http://www.w3.org/2000/svg"><path d="M75.47 31.33 52.11 10.67A13.148 13.148 0 0 0 45 8.58c-2.47 0-4.94.7-7.11 2.09L5.88 31.27a5.69 5.69 0 0 0-2.61 4.79v6L45 67.55s32.1-35.17 30.47-36.22z" fill="#87CBE3"/><path d="M86.73 36.06c0-1.94-.98-3.74-2.61-4.79l-32.01-20.6A13.148 13.148 0 0 0 45 8.58v24.91l41.73 8.57v-6z" fill="#0BA6DE"/><path d="M84.41 37.63 50.09 15.54a9.38 9.38 0 0 0-10.18 0L5.59 37.63c-3.25 2.09-3.04 6.91.38 8.71L45 66.88l39.03-20.54c3.42-1.8 3.63-6.62.38-8.71z" fill="#0381B8"/><path d="M45 35.63c-15.81 0-28.68 4.79-28.68 10.69l.03 15.06c0 2.23 1.14 4.3 3.01 5.5l20.02 12.88c3.43 2.2 7.82 2.2 11.25 0l20.02-12.88a6.55 6.55 0 0 0 3.01-5.5l.03-15.06c0-5.9-12.87-10.69-28.68-10.69H45z" fill="#0BA6DE"/><path d="M18.84 49.45v11.56c0 1.19.22 2.34 1.53 3.24l.86.55 19.75 12.63c1.07.72 3.59.65 3.59-1.32l.46-12.66c0-13.97-26.18-25.52-26.18-14h-.01z" fill="#87CBE3"/><path d="M82.18 60.08c.51-.51.82-1.21.82-1.99s-.34-1.52-.88-2.03V29.98l-3.9-2.51v28.59c-.54.51-.88 1.23-.88 2.03 0 .8.31 1.47.82 1.99l-2.42 16.94c0 1.02 1.98 1.85 4.43 1.85 2.45 0 4.43-.83 4.43-1.85l-2.42-16.94z" fill="#F7C631"/></svg>