<?xml version="1.0" encoding="utf-8"?>
<!-- Generator: Adobe Illustrator 28.0.0, SVG Export Plug-In . SVG Version: 6.00 Build 0)  -->
<svg version="1.1" id="Layer_1" xmlns="http://www.w3.org/2000/svg" xmlns:xlink="http://www.w3.org/1999/xlink" x="0px" y="0px"
	 viewBox="0 0 600 166" style="enable-background:new 0 0 600 166;" xml:space="preserve">
<style type="text/css">
	.st0{fill:#5D9948;}
	.st1{fill:#81B64C;}
	.st2{fill:#B2E068;}
	.st3{fill:#FFFFFF;}
</style>
<g>
	<path class="st0" d="M84.5,132.6c-11-10.5-17.1-25.1-17.1-41c0-6.6,1.1-13,3.1-18.9c0-0.1,0-0.1,0-0.2h0.1
		c2.2-6.6,5.6-12.6,10.1-17.8l-9.5-6.2c6.7-4.9,11.1-12.7,11.1-21.6c0-11.2-6.9-20.8-16.7-24.8c-3.1-1.2-24.9,70.5-24.9,70.5
		c-0.1,1.7-0.1,3.8-0.1,6.4c0,7.1,17.5,6.1,16.6,12.3c-1.4,9.4-1.7,16.6-9.8,39.2c-5.5,15.3-41.9,0-44.5,7.5
		C1,143.1,0,148.9,0,155.2c0,0.7,1.5,10.8,55.5,10.8s55.5-10.1,55.5-10.8c0-3-0.2-5.9-0.7-8.7C100.5,144.1,91.6,139.3,84.5,132.6
		L84.5,132.6z"/>
	<path class="st1" d="M54.5,129.4c3-13.7,5.7-28.3,7.3-37c2-10.9-14.5-12.9-21.3-13.9c-0.3,9.3-2.9,24.4-25,41.3
		c-6,4.6-10.4,11.1-13,18.9c6,2.9,14,4.7,26.2,4.7C36.6,143.4,51.2,144.4,54.5,129.4L54.5,129.4z"/>
	<path class="st1" d="M66.1,72.5c2.6-6.8,2.3-11.4,2.3-11.4L57.5,48.4c11.6-5,18.6-14.3,18.6-25.1c0-8.7-4.1-16.4-10.5-21.2l0,0
		C62.4,0.7,59,0,55.5,0C40.7,0,28.8,12,28.8,26.7c0,8.9,4.4,16.8,11.1,21.6L20.6,61.1c0,4.3,1,7.7,3,11.4L66.1,72.5L66.1,72.5z"/>
	<path class="st2" d="M39.8,24.9C33.1,24.1,39.5,3.2,54,5.4C69.4,7.8,46.9,25.7,39.8,24.9z"/>
	<path class="st3" d="M226.8,97.1v37.9c0,1.3-1.1,2.4-2.4,2.4h-15.5c-1.3,0-2.4-1.1-2.4-2.4v-34.7c0-11.4-3.2-16.6-11.2-16.6
		c-9.4,0-14,6-14,19v32.4c0,1.3-1.1,2.4-2.4,2.4h-15.5c-1.3,0-2.4-1.1-2.4-2.4V46.6c0-1.3,1.1-2.4,2.4-2.4h15.5
		c1.3,0,2.4,1.1,2.4,2.4v26.2c5.3-5.2,10.3-6.9,19.3-6.9C217.1,65.9,226.8,75.6,226.8,97.1L226.8,97.1z"/>
	<path class="st3" d="M270.1,65.9c-21.4,0-34.6,15.2-34.6,36.3c0,18.3,10.6,36.3,36,36.3c10.9,0,21.6-1.6,28.4-5.3
		c1-0.6,1.5-1.8,1-2.9l-4.9-10.6c-0.5-1.2-2-1.6-3.1-1c-7,3.7-11.1,4.4-20.2,4.4s-16.6-7.7-17.1-15.1h46.1c1,0,1.8-0.8,1.9-1.8
		c0.1-1.3,0.2-2.7,0.2-3.7C303.8,79.8,290.7,65.9,270.1,65.9L270.1,65.9z M255.3,96c0.6-9,6-14.7,15-14.7s13.9,5.8,14.6,14.7
		L255.3,96L255.3,96z"/>
	<path class="st3" d="M376.3,130.2l4.9-10.6c0.5-1.2,2-1.6,3.1-1c6.2,3.4,12.8,4.4,20.5,4.4c9.4,0,12.9-2.5,12.9-6.4
		c0-11.5-42.5,0.3-42.5-27.9c0-13.3,12-22.8,32.5-22.8c8.8,0,17.8,2,24.5,5.3c1.1,0.5,1.5,1.8,1,2.9l-4.9,10.5
		c-0.5,1.1-1.9,1.6-3,1.1c-6.2-3.1-11.8-4.3-17.6-4.3c-9.1,0-13.1,2.9-13.1,6.5c0,12,42.5,0.4,42.5,28.1c0,13.1-12.1,22.4-33.2,22.4
		c-10.9,0-20-1.6-26.8-5.3C376.2,132.5,375.7,131.2,376.3,130.2L376.3,130.2z"/>
	<path class="st3" d="M438.2,132.9c0-3.2,2.5-5.5,5.5-5.5s5.3,2.2,5.3,5.5s-2.4,5.6-5.3,5.6S438.2,136.1,438.2,132.9z"/>
	<path class="st3" d="M489.5,115.1c0-13.6,9.5-23.3,22.3-23.3c12.9,0,22.2,9.7,22.2,23.3s-9.4,23.4-22.2,23.4
		S489.5,128.7,489.5,115.1L489.5,115.1z M526.2,115.1c0-9.7-6.2-16-14.4-16s-14.5,6.3-14.5,16s6.2,16.1,14.5,16.1
		C520.1,131.2,526.2,124.8,526.2,115.1z"/>
	<path class="st3" d="M600,111.6v24.6c0,0.9-0.7,1.6-1.6,1.6h-5c-0.9,0-1.6-0.7-1.6-1.6v-23.7c0-9-2.6-13.4-9.9-13.4
		c-6.9,0-7.9,5.3-7.9,15.2v21.9c0,0.9-0.7,1.6-1.6,1.6h-5c-0.9,0-1.6-0.7-1.6-1.6v-23.7c0-9-2.2-13.4-9.4-13.4
		c-6.7,0-8.4,5.3-8.4,15.2v21.9c0,0.9-0.7,1.6-1.6,1.6h-5c-0.9,0-1.6-0.7-1.6-1.6V93.9c0-0.9,0.7-1.7,1.6-1.7h4.6
		c0.9,0,1.6,0.7,1.6,1.7v2.4c0.6-1,3.1-4.5,10-4.5c6.2,0,10,2.2,12.8,6.6c0,0,2.9-6.6,12.9-6.6C594.4,91.8,600,98.2,600,111.6
		L600,111.6z"/>
	<path class="st3" d="M473.5,131.2c-9,0-14.5-6.2-14.5-16.1s5.5-16,14.5-16c4,0,7.8,1.4,10.6,4.2c0.7,0.7,1.8,0.2,1.8-0.8v-6.4
		c0-0.7-0.4-1.3-1-1.6c-3.2-1.8-7.1-2.7-11.4-2.7c-14.1,0-22.9,9.7-22.9,23.3s8.8,23.4,22.9,23.4c4.2,0,8.1-0.9,11.4-2.7
		c0.6-0.3,1-0.9,1-1.6v-6.4c0-1-1.2-1.5-1.8-0.8C481.2,129.8,477.5,131.2,473.5,131.2z"/>
	<path class="st3" d="M330,87.8c0-3.8,4-6.7,13.4-6.7c5.9,0,11.6,1.3,18.1,4.5c1.2,0.6,2.6,0.1,3.1-1.1l5-10.8c0.5-1.1,0.1-2.5-1-3
		c-6.9-3.4-16.1-5.5-25.2-5.5c-21.1,0-33.5,9.7-33.5,23.4c0,28.9,43.7,16.8,43.7,28.7c0,4-3.6,6.6-13.3,6.6
		c-7.9,0-14.8-1.1-21.1-4.6c-1.2-0.6-2.6-0.2-3.2,1l-5.1,10.9c-0.5,1.1-0.1,2.4,1,3c7,3.9,16.4,5.5,27.6,5.5
		c21.6,0,34.1-9.6,34.1-23C373.7,88.2,330,100.2,330,87.8L330,87.8z"/>
	<path class="st3" d="M127.7,120.9c-17.1,0-29.3-12-29.3-29.3s12.2-29.3,29.3-29.3c7.1,0,13.4,2.2,18.7,6.5c1.7,1.4,4.3,0.2,4.3-2
		V51.5c0-1.2-0.7-2.3-1.8-2.8c-6.5-3-14-4.5-22.2-4.5C98.1,44.2,77,63.9,77,91.6s21.2,47.4,49.5,47.4c8.3,0,15.8-1.6,22.4-4.5
		c1.1-0.5,1.8-1.6,1.8-2.8v-15.3c0-2.2-2.6-3.4-4.3-2C141,118.6,134.8,120.9,127.7,120.9L127.7,120.9z"/>
</g>
</svg>