<?xml version="1.0" encoding="UTF-8"?><svg id="artwork" xmlns="http://www.w3.org/2000/svg" viewBox="0 0 600 165.77"><defs><style>.cls-1{fill:#5d9948;}.cls-1,.cls-2,.cls-3,.cls-4{stroke-width:0px;}.cls-2{fill:#81b64c;}.cls-3{fill:#2e2c29;}.cls-4{fill:#b2e068;}</style></defs><path class="cls-3" d="M226.75,96.9v37.82c0,1.34-1.09,2.43-2.43,2.43h-15.53c-1.34,0-2.43-1.09-2.43-2.43v-34.69c0-11.37-3.24-16.6-11.17-16.6-9.4,0-13.98,6.01-13.98,18.95v32.34c0,1.34-1.09,2.43-2.43,2.43h-15.53c-1.34,0-2.43-1.09-2.43-2.43V46.53c0-1.34,1.09-2.43,2.43-2.43h15.53c1.34,0,2.43,1.09,2.43,2.43v26.16c5.3-5.15,10.26-6.89,19.28-6.89,16.6,0,26.27,9.67,26.27,31.11Z"/><path class="cls-3" d="M270.11,65.79c-21.43,0-34.63,15.16-34.63,36.2,0,18.31,10.64,36.2,35.98,36.2,10.87,0,21.58-1.58,28.38-5.34,1.04-.57,1.47-1.84.97-2.91l-4.91-10.58c-.55-1.18-1.97-1.61-3.12-1-7.03,3.67-11.11,4.41-20.2,4.41s-16.57-7.69-17.07-15.03h46.13c1,0,1.84-.76,1.93-1.77.12-1.3.24-2.66.24-3.72,0-22.61-13.07-36.46-33.72-36.46ZM255.26,95.85c.59-8.99,5.99-14.64,14.98-14.64s13.86,5.81,14.56,14.64h-29.55Z"/><path class="cls-3" d="M376.26,129.95l4.91-10.58c.55-1.18,1.98-1.63,3.12-1,6.19,3.37,12.82,4.41,20.53,4.41,9.41,0,12.94-2.48,12.94-6.4,0-11.5-42.48.26-42.48-27.84,0-13.33,12.02-22.74,32.54-22.74,8.79,0,17.78,2.03,24.47,5.31,1.08.53,1.52,1.85,1.01,2.94l-4.91,10.47c-.53,1.14-1.89,1.6-3.02,1.05-6.25-3.09-11.78-4.35-17.56-4.35-9.15,0-13.07,2.88-13.07,6.53,0,12.02,42.48.39,42.48,28.1,0,13.07-12.15,22.35-33.2,22.35-10.87,0-20.02-1.58-26.81-5.34-1.04-.57-1.47-1.84-.97-2.91Z"/><path class="cls-3" d="M438.18,132.65c0-3.21,2.49-5.46,5.46-5.46s5.3,2.25,5.3,5.46-2.41,5.54-5.3,5.54-5.46-2.33-5.46-5.54Z"/><path class="cls-3" d="M489.49,114.88c0-13.59,9.47-23.23,22.33-23.23s22.25,9.64,22.25,23.23-9.38,23.31-22.25,23.31-22.33-9.72-22.33-23.31ZM526.22,114.88c0-9.72-6.15-16-14.4-16s-14.48,6.28-14.48,16,6.23,16.09,14.48,16.09,14.4-6.37,14.4-16.09Z"/><path class="cls-3" d="M600,111.44v24.6c0,.91-.74,1.64-1.64,1.64h-4.97c-.91,0-1.64-.74-1.64-1.64v-23.65c0-8.95-2.56-13.33-9.87-13.33-6.86,0-7.92,5.25-7.92,15.14v21.84c0,.91-.74,1.64-1.64,1.64h-4.97c-.91,0-1.64-.74-1.64-1.64v-23.65c0-8.95-2.18-13.33-9.42-13.33-6.74,0-8.37,5.25-8.37,15.14v21.84c0,.91-.74,1.64-1.64,1.64h-4.97c-.91,0-1.64-.74-1.64-1.64v-42.31c0-.91.74-1.64,1.64-1.64h4.63c.91,0,1.64.74,1.64,1.64v2.4c.62-.96,3.1-4.47,9.99-4.47,6.16,0,9.95,2.15,12.82,6.58,0,0,2.9-6.58,12.88-6.58,11.1,0,16.75,6.37,16.75,19.79Z"/><path class="cls-3" d="M473.49,130.97c-8.97,0-14.45-6.19-14.45-16.09s5.48-16,14.45-16c4.05,0,7.76,1.35,10.58,4.24.67.68,1.84.18,1.84-.78v-6.44c0-.67-.38-1.27-.97-1.59-3.25-1.75-7.12-2.66-11.36-2.66-14.06,0-22.9,9.64-22.9,23.23s8.84,23.31,22.9,23.31c4.25,0,8.12-.93,11.37-2.71.59-.32.96-.92.96-1.59v-6.4c0-.96-1.17-1.46-1.84-.78-2.82,2.89-6.53,4.24-10.58,4.24Z"/><path class="cls-3" d="M329.98,87.64c0-3.76,4.03-6.72,13.44-6.72,5.94,0,11.64,1.29,18.06,4.47,1.16.57,2.56.09,3.1-1.07l5.05-10.77c.53-1.12.08-2.48-1.04-3.03-6.88-3.38-16.13-5.46-25.17-5.46-21.11,0-33.47,9.68-33.47,23.39,0,28.9,43.69,16.8,43.69,28.63,0,4.03-3.63,6.59-13.31,6.59-7.94,0-14.76-1.08-21.12-4.54-1.18-.64-2.64-.18-3.21,1.03l-5.06,10.89c-.51,1.11-.07,2.4,1,2.99,6.99,3.87,16.4,5.49,27.58,5.49,21.64,0,34.14-9.55,34.14-22.99,0-28.5-43.69-16.53-43.69-28.9Z"/><path class="cls-3" d="M226.75,96.9v37.82c0,1.34-1.09,2.43-2.43,2.43h-15.53c-1.34,0-2.43-1.09-2.43-2.43v-34.69c0-11.37-3.24-16.6-11.17-16.6-9.4,0-13.98,6.01-13.98,18.95v32.34c0,1.34-1.09,2.43-2.43,2.43h-15.53c-1.34,0-2.43-1.09-2.43-2.43V46.53c0-1.34,1.09-2.43,2.43-2.43h15.53c1.34,0,2.43,1.09,2.43,2.43v26.16c5.3-5.15,10.26-6.89,19.28-6.89,16.6,0,26.27,9.67,26.27,31.11Z"/><path class="cls-3" d="M127.65,120.68c-17.12,0-29.28-12.02-29.28-29.28s12.15-29.27,29.28-29.27c7.12,0,13.36,2.21,18.68,6.52,1.74,1.41,4.33.24,4.33-2v-15.25c0-1.21-.72-2.3-1.82-2.8-6.52-2.95-14.02-4.5-22.22-4.5-28.49,0-49.66,19.74-49.66,47.31s21.17,47.31,49.53,47.31c8.28,0,15.82-1.55,22.36-4.53,1.1-.5,1.82-1.59,1.82-2.8v-15.3c0-2.24-2.6-3.4-4.33-1.98-5.31,4.37-11.56,6.58-18.68,6.58Z"/><path class="cls-3" d="M270.11,65.79c-21.43,0-34.63,15.16-34.63,36.2,0,18.31,10.64,36.2,35.98,36.2,10.87,0,21.58-1.58,28.38-5.34,1.04-.57,1.47-1.84.97-2.91l-4.91-10.58c-.55-1.18-1.97-1.61-3.12-1-7.03,3.67-11.11,4.41-20.2,4.41s-16.57-7.69-17.07-15.03h46.13c1,0,1.84-.76,1.93-1.77.12-1.3.24-2.66.24-3.72,0-22.61-13.07-36.46-33.72-36.46ZM255.26,95.85c.59-8.99,5.99-14.64,14.98-14.64s13.86,5.81,14.56,14.64h-29.55Z"/><path class="cls-3" d="M376.26,129.95l4.91-10.58c.55-1.18,1.98-1.63,3.12-1,6.19,3.37,12.82,4.41,20.53,4.41,9.41,0,12.94-2.48,12.94-6.4,0-11.5-42.48.26-42.48-27.84,0-13.33,12.02-22.74,32.54-22.74,8.79,0,17.78,2.03,24.47,5.31,1.08.53,1.52,1.85,1.01,2.94l-4.91,10.47c-.53,1.14-1.89,1.6-3.02,1.05-6.25-3.09-11.78-4.35-17.56-4.35-9.15,0-13.07,2.88-13.07,6.53,0,12.02,42.48.39,42.48,28.1,0,13.07-12.15,22.35-33.2,22.35-10.87,0-20.02-1.58-26.81-5.34-1.04-.57-1.47-1.84-.97-2.91Z"/><path class="cls-3" d="M438.18,132.65c0-3.21,2.49-5.46,5.46-5.46s5.3,2.25,5.3,5.46-2.41,5.54-5.3,5.54-5.46-2.33-5.46-5.54Z"/><path class="cls-3" d="M489.49,114.88c0-13.59,9.47-23.23,22.33-23.23s22.25,9.64,22.25,23.23-9.38,23.31-22.25,23.31-22.33-9.72-22.33-23.31ZM526.22,114.88c0-9.72-6.15-16-14.4-16s-14.48,6.28-14.48,16,6.23,16.09,14.48,16.09,14.4-6.37,14.4-16.09Z"/><path class="cls-3" d="M600,111.44v24.6c0,.91-.74,1.64-1.64,1.64h-4.97c-.91,0-1.64-.74-1.64-1.64v-23.65c0-8.95-2.56-13.33-9.87-13.33-6.86,0-7.92,5.25-7.92,15.14v21.84c0,.91-.74,1.64-1.64,1.64h-4.97c-.91,0-1.64-.74-1.64-1.64v-23.65c0-8.95-2.18-13.33-9.42-13.33-6.74,0-8.37,5.25-8.37,15.14v21.84c0,.91-.74,1.64-1.64,1.64h-4.97c-.91,0-1.64-.74-1.64-1.64v-42.31c0-.91.74-1.64,1.64-1.64h4.63c.91,0,1.64.74,1.64,1.64v2.4c.62-.96,3.1-4.47,9.99-4.47,6.16,0,9.95,2.15,12.82,6.58,0,0,2.9-6.58,12.88-6.58,11.1,0,16.75,6.37,16.75,19.79Z"/><path class="cls-3" d="M473.49,130.97c-8.97,0-14.45-6.19-14.45-16.09s5.48-16,14.45-16c4.05,0,7.76,1.35,10.58,4.24.67.68,1.84.18,1.84-.78v-6.44c0-.67-.38-1.27-.97-1.59-3.25-1.75-7.12-2.66-11.36-2.66-14.06,0-22.9,9.64-22.9,23.23s8.84,23.31,22.9,23.31c4.25,0,8.12-.93,11.37-2.71.59-.32.96-.92.96-1.59v-6.4c0-.96-1.17-1.46-1.84-.78-2.82,2.89-6.53,4.24-10.58,4.24Z"/><path class="cls-3" d="M329.98,87.64c0-3.76,4.03-6.72,13.44-6.72,5.94,0,11.64,1.29,18.06,4.47,1.16.57,2.56.09,3.1-1.07l5.05-10.77c.53-1.12.08-2.48-1.04-3.03-6.88-3.38-16.13-5.46-25.17-5.46-21.11,0-33.47,9.68-33.47,23.39,0,28.9,43.69,16.8,43.69,28.63,0,4.03-3.63,6.59-13.31,6.59-7.94,0-14.76-1.08-21.12-4.54-1.18-.64-2.64-.18-3.21,1.03l-5.06,10.89c-.51,1.11-.07,2.4,1,2.99,6.99,3.87,16.4,5.49,27.58,5.49,21.64,0,34.14-9.55,34.14-22.99,0-28.5-43.69-16.53-43.69-28.9Z"/><path class="cls-1" d="M84.47,132.37c-11.04-10.47-17.12-25.02-17.12-40.96,0-6.61,1.06-12.97,3.07-18.9,0-.05,0-.11,0-.16h.06c2.24-6.55,5.64-12.58,10.13-17.82l-9.47-6.24c6.69-4.85,11.06-12.72,11.06-21.61,0-11.2-6.9-20.79-16.68-24.75-3.09-1.25-24.91,70.41-24.91,70.41-.08,1.64-.09,3.79-.09,6.38,0,7.12,17.5,6.04,16.56,12.33-1.4,9.4-1.69,16.55-9.78,39.14-5.46,15.25-41.91,0-44.51,7.49-1.81,5.21-2.77,11.05-2.77,17.33,0,.67,1.46,10.76,55.5,10.76s55.5-10.09,55.5-10.76c0-3-.23-5.89-.65-8.67-9.86-2.47-18.76-7.22-25.88-13.98Z"/><path class="cls-2" d="M54.52,129.15c3.01-13.67,5.67-28.24,7.29-36.97,2.02-10.89-14.51-12.84-21.3-13.84-.31,9.3-2.91,24.4-25.04,41.27-5.97,4.55-10.42,11.05-12.98,18.92,5.97,2.91,13.95,4.65,26.24,4.65,7.89,0,22.49.95,25.78-14.03Z"/><path class="cls-2" d="M66.13,72.35c2.61-6.8,2.27-11.37,2.27-11.37l-10.91-12.69c11.6-4.95,18.58-14.26,18.58-25.1,0-8.66-4.12-16.34-10.51-21.22,0,0,0,0,0,0C62.47.7,59.07,0,55.5,0,40.77,0,28.82,11.95,28.82,26.68c0,8.9,4.36,16.76,11.06,21.61l-19.26,12.69c0,4.26,1.01,7.68,3,11.37h42.52Z"/><path class="cls-4" d="M53.98,5.44c15.39,2.39-7.09,20.24-14.18,19.4-6.74-.79-.24-21.64,14.18-19.4Z"/></svg>